<?xml version="1.0" standalone="no"?><!DOCTYPE svg PUBLIC "-//W3C//DTD SVG 1.1//EN" "http://www.w3.org/Graphics/SVG/1.1/DTD/svg11.dtd"><svg t="1599489136056" class="icon" viewBox="0 0 1024 1024" version="1.1" xmlns="http://www.w3.org/2000/svg" p-id="3911" xmlns:xlink="http://www.w3.org/1999/xlink" width="200" height="200"><defs><style type="text/css"></style></defs><path d="M124.416 177.152c-36.864 42.496-66.56 91.136-88.064 144.384L341.504 512 36.864 702.464c21.504 53.248 51.2 101.888 88.064 144.384L512 614.4l387.584 232.448c36.864-42.496 66.56-91.136 88.064-144.384L682.496 512l304.64-190.464c-21.504-53.248-51.2-101.888-88.064-144.384L512 409.6 124.416 177.152z" fill="#FDD94F" p-id="3912"></path><path d="M987.136 702.464c23.552-58.88 36.864-122.88 36.864-190.464s-12.8-131.584-36.864-190.464L682.496 512l304.64 190.464zM36.864 321.536C12.8 380.416 0 444.928 0 512s12.8 131.584 36.864 190.464L341.504 512 36.864 321.536z" fill="#292929" p-id="3913"></path><path d="M899.584 846.848L512 614.4l-387.584 232.448C218.624 955.392 357.376 1024 512 1024s293.376-68.608 387.584-177.152zM124.416 177.152L512 409.6l387.584-232.448C805.376 68.608 666.624 0 512 0S218.624 68.608 124.416 177.152z" fill="#30A354" p-id="3914"></path></svg>